<?xml version="1.0" standalone="no"?>
<!DOCTYPE svg PUBLIC "-//W3C//DTD SVG 20010904//EN"
 "http://www.w3.org/TR/2001/REC-SVG-20010904/DTD/svg10.dtd">
<svg version="1.0" xmlns="http://www.w3.org/2000/svg"
 width="920.000000pt" height="512.000000pt" viewBox="0 0 920.000000 512.000000"
 preserveAspectRatio="xMidYMid meet">
<metadata>
Created by potrace 1.16, written by Peter Selinger 2001-2019
</metadata>
<g transform="translate(0.000000,512.000000) scale(0.100000,-0.100000)"
fill="#000000" stroke="none">
<path d="M3655 4920 c-814 -110 -1488 -199 -1497 -200 -17 0 -18 -109 -18
-2154 l0 -2153 82 -11 c46 -6 398 -54 783 -107 1585 -217 1875 -256 1980 -270
61 -9 125 -18 143 -21 l32 -5 0 221 0 220 795 0 c538 0 811 4 847 11 106 22
199 101 237 203 l21 57 -2 1867 -3 1867 -26 56 c-33 71 -87 125 -158 158 l-56
26 -827 3 -828 2 0 215 c0 166 -3 215 -12 214 -7 0 -679 -90 -1493 -199z
m3152 -440 c68 -41 63 114 63 -1917 0 -1781 -1 -1839 -19 -1869 -41 -67 -3
-64 -890 -64 l-801 0 0 222 0 221 29 -39 c78 -108 202 -163 340 -151 124 12
200 50 252 127 52 77 53 84 56 558 l4 442 -116 0 -115 0 0 -414 c0 -234 -4
-425 -9 -439 -18 -48 -50 -67 -110 -67 -54 0 -56 1 -107 54 l-51 55 -82 -50
c-45 -27 -84 -49 -87 -49 -2 0 -4 765 -4 1700 l0 1700 808 0 c783 0 808 -1
839 -20z m-2644 -1302 c42 -11 77 -23 77 -27 0 -3 -13 -51 -29 -106 -20 -71
-32 -99 -42 -96 -143 39 -158 42 -229 38 -90 -4 -136 -26 -155 -71 -34 -80 19
-131 210 -206 139 -55 226 -126 268 -219 16 -35 21 -66 21 -127 0 -72 -4 -90
-33 -148 -36 -74 -78 -114 -166 -156 -122 -58 -319 -63 -486 -10 -100 31 -96
23 -69 144 13 58 24 106 25 106 2 0 27 -11 56 -23 78 -34 143 -48 224 -49 109
0 169 33 181 99 14 77 -32 121 -205 193 -212 88 -301 198 -289 354 21 257 304
392 641 304z m-823 -395 c0 -421 -5 -482 -51 -580 -70 -147 -231 -201 -453
-151 l-48 11 6 39 c4 22 9 66 13 99 l6 59 41 -8 c122 -22 183 -2 221 74 19 37
20 62 23 442 l3 402 120 0 119 0 0 -387z"/>
<path d="M6255 2007 c-142 -47 -216 -147 -216 -289 1 -173 55 -237 297 -355
89 -43 163 -86 174 -100 12 -15 20 -41 20 -62 0 -73 -56 -113 -156 -113 -76 1
-124 23 -182 86 l-42 46 -90 -51 c-50 -28 -90 -55 -90 -59 0 -14 57 -86 100
-124 144 -129 429 -141 582 -23 22 18 55 56 71 86 43 75 49 188 17 276 -35 94
-91 141 -273 230 -84 41 -162 85 -174 97 -66 71 -19 168 82 168 45 0 85 -20
119 -61 l26 -31 85 53 c47 30 85 59 85 66 0 26 -101 121 -152 144 -65 28 -219
37 -283 16z"/>
</g>
</svg>
